<?xml version="1.0" encoding="UTF-8"?>
<svg id="Calque_2" data-name="Calque 2" xmlns="http://www.w3.org/2000/svg" viewBox="0 0 278.49 244.95">
  <defs>
    <style>
      .cls-1 {
        fill: none;
        stroke: #1d1d1b;
        stroke-miterlimit: 10;
      }
    </style>
  </defs>
  <g id="Calque_1-2" data-name="Calque 1">
    <path class="cls-1" d="m11.46.51l188.07,3.93-6.35,23.38s-.23.86-.34,1.29c-2.41,9.11-4.66,17.9-5.09,20.71-2.62,17.02-21.38,172.36-21.38,172.36,0,0-9.6,13.53-28.8,16.15s-62.4,6.11-62.4,6.11l-48.44-29.24L11.46,42.84S1.42,10.55.55,5.31,11.46.51,11.46.51Z"/>
    <path class="cls-1" d="m192.83,29.11l28.95-8.96s92.54,17.03,40.15,73.31l-62.4,56.73s-12.65,30.04-20.07,31.38-7.97-1.62-7.97-1.62c0,0-1.63-11,1.42-19.73s44.95-54.55,44.95-54.55l34.04-35.78s-4.36-30.98-21.38-27.93-17.89-9.6-36.65,22.25c-18.76,31.85-9.4,10.55-9.4,10.55"/>
  </g>
</svg>