<svg width="1" height="1" viewBox="0 0 1 1" fill="none" xmlns="http://www.w3.org/2000/svg">
<path fill-rule="evenodd" clip-rule="evenodd" d="M0.69238 0.296007L0.692207 0.297106L0.691359 0.303816L0.688901 0.323295L0.680182 0.392443L0.658033 0.568651L0.868896 0.38795C0.877725 0.372651 0.889795 0.348116 0.898318 0.322502C0.907423 0.295139 0.911398 0.269674 0.90634 0.252781L0.905476 0.249895L0.905476 0.249894L0.905476 0.249893C0.897726 0.22399 0.891969 0.204751 0.883282 0.191377C0.879019 0.184814 0.874273 0.180088 0.868505 0.176908C0.862699 0.173707 0.855169 0.171694 0.844859 0.171694C0.828338 0.171694 0.808111 0.177908 0.788862 0.18635C0.772776 0.193404 0.75817 0.201657 0.748223 0.208L0.747099 0.212977C0.745901 0.217377 0.744109 0.222164 0.742064 0.226972C0.73796 0.236617 0.732337 0.247493 0.726792 0.257532C0.721217 0.267627 0.715575 0.277135 0.71134 0.284102L0.706191 0.292455L0.704732 0.294776L0.704475 0.295181L0.70434 0.295394L0.704236 0.295557L0.704197 0.295618L0.704196 0.295618L0.693186 0.29093L0.692971 0.29227L0.69238 0.296007ZM0.641092 0.704005L0.640854 0.705917L0.640853 0.70592L0.64085 0.705946C0.638139 0.728296 0.622954 0.845693 0.611639 0.92427L0.610715 0.930683L0.605392 0.933562C0.512622 0.983732 0.438392 1.00399 0.362682 0.999356C0.287352 0.994743 0.211718 0.965517 0.116308 0.919316L0.109984 0.916253L0.109508 0.908712L0.120957 0.907848C0.109508 0.908712 0.109508 0.90871 0.109507 0.908707L0.109412 0.907214L0.10912 0.902765L0.107944 0.885525C0.106894 0.870495 0.105313 0.848622 0.103185 0.821273C0.098928 0.76657 0.0924863 0.689975 0.0837475 0.602421C0.0662578 0.427193 0.0396103 0.208526 0.0029545 0.0336313L0 0.0195346L0.0131862 0.0183317C0.288438 -0.00677917 0.445845 -0.0100648 0.737813 0.0338423L0.75227 0.0360164L0.746929 0.0508588C0.739839 0.0705578 0.733438 0.0911193 0.727575 0.112722C0.774121 0.0977927 0.808366 0.0902451 0.841054 0.0938294C0.877853 0.0978646 0.911244 0.115811 0.957085 0.148663C0.983525 0.167611 0.995578 0.197518 0.998968 0.229739C1.00234 0.261753 0.997337 0.297122 0.988837 0.329614C0.980309 0.362213 0.968025 0.392793 0.956104 0.415527C0.95016 0.426862 0.944131 0.436583 0.938496 0.443712C0.935691 0.447261 0.932749 0.450469 0.929736 0.45293C0.927834 0.454484 0.925327 0.456223 0.922365 0.457278L0.713242 0.638988C0.707376 0.668589 0.687276 0.685117 0.669963 0.693945C0.66076 0.698637 0.651904 0.701416 0.645393 0.703027C0.643826 0.703415 0.642384 0.703738 0.641092 0.704005Z" fill="black"/>
</svg>
